<?xml version="1.0" encoding="utf-8"?>
<!-- Generator: Adobe Illustrator 24.0.2, SVG Export Plug-In . SVG Version: 6.00 Build 0)  -->
<svg version="1.1" id="Layer_1" xmlns="http://www.w3.org/2000/svg" xmlns:xlink="http://www.w3.org/1999/xlink" x="0px" y="0px"
	 viewBox="-2459.7 882.5 354.5 65" style="enable-background:new -2459.7 882.5 354.5 65;" xml:space="preserve">
<style type="text/css">
	.st0{enable-background:new    ;}
	.st1{fill:#FFFFFF;}
</style>
<title>black</title>
<g class="st0">
	<path class="st1" d="M-2354.8,931.9v-19.1c0-1.5-0.6-2.2-2.2-2.2c-1.7,0-4.7,1-7.1,2.3v19h-6.8v-27.3h5.2l0.7,2.3
		c3.4-1.7,7.7-2.9,10.9-2.9c2.6,0,4.3,1.1,5.2,2.9c3.3-1.7,7.7-2.9,11-2.9c4.5,0,6.2,3.2,6.2,8.1v19.8h-6.8v-19.1
		c0-1.5-0.6-2.2-2.2-2.2c-1.7,0-5,1.1-7.1,2.3v19H-2354.8z"/>
	<path class="st1" d="M-2313.3,926.9c2.6,0,5.4-0.4,8.4-1.3l1.1,5.2c-3.1,1.2-6.8,1.7-10,1.7c-8.6,0-11.6-4-11.6-10.5v-7.2
		c0-5.8,2.6-10.7,11.3-10.7c8.8,0,10.7,5.1,10.7,11v5.8h-15.2v1.4C-2318.7,925.6-2317.5,926.9-2313.3,926.9z M-2318.7,915.4h8.7
		v-1.3c0-2.6-0.8-4.4-4.2-4.4c-3.4,0-4.5,1.8-4.5,4.4V915.4z"/>
	<path class="st1" d="M-2298.4,913.7c0-6.1,2.7-9.6,9-9.6c2.4,0,5.2,0.3,7.3,0.8v-11.4l6.8-1v39.4h-5.4l-0.7-2.3
		c-2.4,1.7-5.2,2.9-8.6,2.9c-5.5,0-8.4-3.3-8.4-9.5V913.7z M-2282.1,910.6c-1.8-0.4-4.1-0.7-6.1-0.7c-2.5,0-3.4,1.2-3.4,3.6v9.6
		c0,2.2,0.8,3.5,3.4,3.5c2.2,0,4.7-1.1,6.1-2.5V910.6z"/>
	<path class="st1" d="M-2267.4,900.8v-7.9h6.8v7.9H-2267.4z M-2267.4,931.9v-27.3h6.8v27.3H-2267.4z"/>
	<path class="st1" d="M-2232.5,931.9h-5.6l-0.5-1.9c-2.5,1.6-5.4,2.4-8.1,2.4c-5,0-7.1-3.4-7.1-8.1c0-5.6,2.4-7.7,8-7.7h6.6v-2.9
		c0-3-0.8-4.1-5.2-4.1c-2.5,0-5.2,0.3-7.6,0.8l-0.8-5.2c2.6-0.8,6.3-1.3,9.4-1.3c8.6,0,11.1,3,11.1,9.9V931.9z M-2239.3,921.6h-5
		c-2.2,0-2.9,0.6-2.9,2.7c0,1.9,0.6,2.7,2.7,2.7c2,0,3.9-0.7,5.2-1.4V921.6z"/>
	<path class="st1" d="M-2216.7,932.5c-2.9,0-6.9-0.7-9.4-1.6l1-5.2c2.3,0.7,5.3,1.2,8.1,1.2c3,0,3.5-0.7,3.5-2.7
		c0-1.7-0.3-2.5-4.8-3.6c-6.7-1.6-7.5-3.3-7.5-8.6c0-5.5,2.4-7.9,10.2-7.9c2.5,0,5.8,0.3,8.2,1l-0.7,5.4c-2.1-0.4-5.4-0.8-7.5-0.8
		c-3,0-3.5,0.7-3.5,2.4c0,2.2,0.2,2.4,3.9,3.3c7.6,2,8.4,3,8.4,8.6C-2206.8,929.3-2208.5,932.5-2216.7,932.5z"/>
	<path class="st1" d="M-2185.6,931.4c-1.5,0.6-4.3,1.1-6,1.1c-5,0-7.5-2.4-7.5-7.2v-15.2h-4.1v-5.4h4.1v-6.8l6.8-1v7.7h7l-0.4,5.4
		h-6.6v14.3c0,1.5,0.7,2.4,2.5,2.4c1,0,2.2-0.2,3.4-0.6L-2185.6,931.4z"/>
	<path class="st1" d="M-2159.9,931.9h-5.6l-0.5-1.9c-2.5,1.6-5.4,2.4-8.1,2.4c-5,0-7.1-3.4-7.1-8.1c0-5.6,2.4-7.7,8-7.7h6.6v-2.9
		c0-3-0.8-4.1-5.2-4.1c-2.5,0-5.2,0.3-7.6,0.8l-0.8-5.2c2.6-0.8,6.3-1.3,9.4-1.3c8.6,0,11.1,3,11.1,9.9V931.9z M-2166.8,921.6h-5
		c-2.2,0-2.9,0.6-2.9,2.7c0,1.9,0.6,2.7,2.7,2.7c2,0,3.9-0.7,5.2-1.4V921.6z"/>
	<path class="st1" d="M-2153.9,922v-7.5c0-7.3,3.2-10.5,11.8-10.5c1.9,0,4.7,0.3,6.7,1l-0.8,5.6c-1.9-0.5-4.3-0.7-5.7-0.7
		c-3.9,0-5.1,1.2-5.1,4.5v7.6c0,3.4,1.2,4.5,5.1,4.5c1.7,0,3.7-0.2,5.7-0.7l0.8,5.6c-1.8,0.6-4.4,1-6.7,1
		C-2150.7,932.5-2153.9,929.4-2153.9,922z"/>
	<path class="st1" d="M-2129.1,931.9v-38.5l6.8-1v39.4H-2129.1z M-2105.9,904.6l-8,13.5l8.4,13.8h-7.5l-8.2-13.8l7.8-13.5H-2105.9z"
		/>
</g>
<g>
	<g>
		<path class="st1" d="M-2424.3,883.2c-0.7,0-1.3-0.1-2-0.1c-1.1,0-2.3,0.1-3.4,0.1c-1.3,0.2-2.6,0.3-3.9,0.6
			c-7.2,1.5-13.2,5.1-17.9,10.8c-4.6,5.5-7.1,11.9-7.4,19.1c-0.1,2.5,0.1,4.9,0.6,7.3c0.3,1.6,1.6,2.6,3.2,2.3
			c6.4-1.3,12.5-3.3,18.3-6.1c6.5-3.1,12.5-7,17.9-11.8c4.1-3.7,7.7-7.8,10.3-12.7c0.9-1.7,0.5-3.4-1.1-4.5
			c-2.1-1.4-4.3-2.4-6.6-3.3C-2418.9,883.9-2421.5,883.3-2424.3,883.2z M-2437.6,945.1c0.4-0.2,0.7-0.3,1-0.5c0.5-0.4,1-0.8,1.5-1.3
			c3.6-2.9,6.9-6.1,10.1-9.5c4.1-4.4,7.7-9.2,10.6-14.5c1.2-2.3,2.3-4.6,3.2-7c0.8-2.1,1.4-4.3,1.8-6.6c0.1-0.4,0.1-0.8-0.3-0.9
			c-0.2-0.1-0.6,0.2-0.8,0.4c-0.5,0.6-1,1.2-1.5,1.8c-2.9,3.3-6.2,6.3-9.7,9c-3.4,2.6-7,4.9-10.7,6.9c-3.1,1.7-6.2,3.1-9.5,4.4
			c-2.4,0.9-4.9,1.7-7.3,2.5c-1.3,0.4-2.6,0.7-3.8,1.1c-0.8,0.2-1,0.9-0.5,1.6c0.8,1.1,1.5,2.2,2.4,3.2c3.1,3.7,7,6.4,11.4,8.5
			C-2439.2,944.5-2438.4,944.8-2437.6,945.1z M-2395,914.7c0-0.3-0.1-0.8-0.1-1.3c-0.1-3.4-0.8-6.7-2-9.8c-0.8-2.1-1.8-4.2-3.1-6.1
			c-0.2-0.2-0.5-0.4-0.8-0.4c-0.2,0-0.4,0.4-0.5,0.7c-0.1,0.6-0.2,1.2-0.2,1.8c-0.4,4.4-1.4,8.8-2.8,13c-3.2,9.7-8.4,18.4-14.9,26.2
			c-2,2.3-4.1,4.5-6.1,6.8c-0.2,0.2-0.3,0.6-0.3,0.9c0.1,0.4,0.5,0.4,0.9,0.4c0.9-0.1,1.8-0.1,2.6-0.3c7.9-1.4,14.6-5.1,19.8-11.2
			C-2397.6,929.4-2395.2,922.6-2395,914.7z"/>
	</g>
	<g>
		<path class="st1" d="M-2424.3,883.2c2.7,0.2,5.4,0.8,7.9,1.7c2.3,0.8,4.5,1.9,6.6,3.3c1.6,1.1,2,2.8,1.1,4.5
			c-2.6,4.9-6.2,9-10.3,12.7c-5.4,4.9-11.4,8.7-17.9,11.8c-5.9,2.8-12,4.9-18.3,6.1c-1.6,0.3-2.9-0.7-3.2-2.3
			c-0.5-2.4-0.7-4.9-0.6-7.3c0.3-7.2,2.8-13.6,7.4-19.1c4.7-5.6,10.7-9.2,17.9-10.8c1.3-0.3,2.6-0.4,3.9-0.6
			C-2427.9,883.2-2426.1,883.2-2424.3,883.2z"/>
	</g>
	<g>
		<path class="st1" d="M-2437.6,945.1c-0.8-0.3-1.5-0.6-2.3-0.9c-4.4-2-8.2-4.8-11.4-8.5c-0.9-1-1.6-2.1-2.4-3.2
			c-0.5-0.7-0.2-1.3,0.5-1.6c1.3-0.4,2.6-0.7,3.8-1.1c2.5-0.8,4.9-1.6,7.3-2.5c3.3-1.2,6.4-2.7,9.5-4.4c3.8-2,7.3-4.3,10.7-6.9
			c3.5-2.7,6.8-5.7,9.7-9c0.5-0.6,1-1.2,1.5-1.8c0.2-0.2,0.6-0.4,0.8-0.4c0.4,0.1,0.4,0.5,0.3,0.9c-0.4,2.2-1,4.4-1.8,6.6
			c-0.9,2.4-2,4.8-3.2,7c-2.9,5.3-6.6,10.1-10.6,14.5c-3.1,3.4-6.5,6.6-10.1,9.5c-0.5,0.4-1,0.9-1.5,1.3
			C-2436.9,944.8-2437.3,944.9-2437.6,945.1z"/>
	</g>
	<g>
		<path class="st1" d="M-2395,914.7c-0.1,7.9-2.6,14.7-7.6,20.6c-5.2,6.1-11.8,9.8-19.8,11.2c-0.9,0.2-1.8,0.2-2.6,0.3
			c-0.4,0-0.8,0-0.9-0.4c-0.1-0.3,0.1-0.7,0.3-0.9c2-2.3,4.2-4.5,6.1-6.8c6.5-7.8,11.7-16.5,14.9-26.2c1.4-4.2,2.4-8.6,2.8-13
			c0.1-0.6,0.1-1.2,0.2-1.8c0.1-0.3,0.3-0.7,0.5-0.7c0.2,0,0.6,0.2,0.8,0.4c1.3,1.9,2.3,3.9,3.1,6.1c1.2,3.2,1.9,6.4,2,9.8
			C-2395.1,913.9-2395,914.5-2395,914.7z"/>
	</g>
	<g>
		<path class="st1" d="M-2424.3,883.2c-1.8,0-3.6,0-5.4,0c1.1,0,2.3-0.1,3.4-0.1C-2425.6,883-2424.9,883.1-2424.3,883.2z"/>
	</g>
</g>
</svg>
