<svg xmlns="http://www.w3.org/2000/svg" viewBox="0 0 280.01 369.81"><title>vertical</title><rect width="280.01" height="369.81" rx="40.81" style="fill:#130f35"/><path d="M171.31,141l36.05-38.46a21.11,21.11,0,0,0-.94-29.83l-.09-.09a21.33,21.33,0,0,0-30,1L126.7,126.57a21.09,21.09,0,0,0,0,28.87l49.59,52.91a21.21,21.21,0,0,0,31.16-28.78l-.09-.1Z" style="fill:#23e6a8;fill-rule:evenodd;opacity:0.400000005960465;isolation:isolate"/><path d="M108.7,141l-36-38.46a21.1,21.1,0,0,1,.94-29.83l.09-.09a21.33,21.33,0,0,1,30,1l49.59,52.92a21.09,21.09,0,0,1,0,28.87l-49.59,52.91a21.21,21.21,0,0,1-31.16-28.78l.09-.1Z" style="fill:#23e6a8;fill-rule:evenodd"/><path d="M62.52,298.35a15.41,15.41,0,0,1-11.24,4.53,15.74,15.74,0,1,1,0-31.48A15.36,15.36,0,0,1,62.52,276a15.92,15.92,0,0,1,0,22.39Zm-17-5.31a8.37,8.37,0,0,0,11.59,0,8.63,8.63,0,0,0,0-11.8,7.89,7.89,0,0,0-5.8-2.33,7.76,7.76,0,0,0-5.76,2.33,8.76,8.76,0,0,0,0,11.8Zm52.51,9H89.1L82.65,293l-6.51,9.07H67.23l10.94-15.21L67.71,272.23h8.9l6,8.41,6-8.41h8.84L87.07,286.78,98,302.05Zm23.3-29.82h8.24l-10.87,29.82q-2.33,6.43-6.18,9.33A14.22,14.22,0,0,1,102.9,314v-7.15a7.79,7.79,0,0,0,4.93-1.31,9.18,9.18,0,0,0,2.89-4.42L98.48,272.23h8.42l7.77,20,6.63-20Zm11.89,29.82h7.7V258.52h-7.7Zm37.45-29.82h7.71v29.82h-7.71v-3.52q-3.46,4.35-9.74,4.35a13.54,13.54,0,0,1-10.24-4.56,16.77,16.77,0,0,1,0-22.36,13.54,13.54,0,0,1,10.24-4.56q6.28,0,9.74,4.35Zm-14.22,21a8.67,8.67,0,0,0,11.86,0,8.93,8.93,0,0,0,0-12.1,8.63,8.63,0,0,0-11.86,0,8.24,8.24,0,0,0-2.33,6.05,8.34,8.34,0,0,0,2.33,6.08Zm46.3-21.82A13.63,13.63,0,0,1,213,276a16.77,16.77,0,0,1,0,22.36,13.63,13.63,0,0,1-10.31,4.56q-6.27,0-9.68-4.35v3.52h-7.7V260.3H193v15.45Q196.45,271.4,202.72,271.4Zm-7.35,21.82a8.67,8.67,0,0,0,11.86,0,8.93,8.93,0,0,0,0-12.1,8.63,8.63,0,0,0-11.86,0,8.24,8.24,0,0,0-2.33,6.05A8.34,8.34,0,0,0,195.37,293.22Zm33.82-12.52c0,.79.52,1.44,1.58,1.94a21.78,21.78,0,0,0,3.85,1.31,39.84,39.84,0,0,1,4.54,1.43,8.77,8.77,0,0,1,3.85,2.89,8,8,0,0,1,1.59,5.07,8.2,8.2,0,0,1-3.44,7.07,14.27,14.27,0,0,1-8.57,2.47q-9.19,0-12.54-7.09l6.69-3.76c.87,2.58,2.82,3.88,5.85,3.88q4.13,0,4.12-2.57c0-.79-.53-1.44-1.58-1.94a23.7,23.7,0,0,0-3.85-1.34,37.65,37.65,0,0,1-4.54-1.49,9.28,9.28,0,0,1-3.86-2.83,7.45,7.45,0,0,1-1.58-4.86,8.36,8.36,0,0,1,3.25-6.95,12.8,12.8,0,0,1,8.1-2.53,13.47,13.47,0,0,1,6.63,1.64,11.93,11.93,0,0,1,4.72,4.68l-6.57,3.58a4.92,4.92,0,0,0-4.78-3.05,4.36,4.36,0,0,0-2.48.66,2,2,0,0,0-1,1.79Z" style="fill:#fff;fill-rule:evenodd"/><path d="M252.24,271.4a4.83,4.83,0,1,0,4.82,4.82A4.83,4.83,0,0,0,252.24,271.4Zm0,8.32a3.5,3.5,0,1,1,3.49-3.5A3.5,3.5,0,0,1,252.24,279.72Zm1.75-4.13a1.57,1.57,0,0,0-1.78-1.58h-1.63v4.42h.93V277.2h.83l.89,1.24h1.16l-1.09-1.51A1.5,1.5,0,0,0,254,275.59Zm-1.78.67h-.7V275h.7c.85,0,.85.48.85.64S253.06,276.26,252.21,276.26Z" style="fill:#fff"/></svg>