<svg viewBox="0 0 220 222" fill="none" xmlns="http://www.w3.org/2000/svg">
<path d="M87.3172 83.8059C87.3172 80.9184 87.8714 78.1171 88.98 75.5312C90.0459 72.9885 91.5808 70.7044 93.4994 68.765C95.418 66.8257 97.6777 65.2742 100.193 64.1967C102.794 63.0762 105.523 62.516 108.379 62.516H116.736L136.178 42.8638H108.379C102.922 42.8638 97.5924 43.9412 92.604 46.096C87.7862 48.1647 83.4373 51.0953 79.728 54.8878C76.0186 58.6372 73.0767 63.0331 71.0302 67.9031C68.8984 72.9454 67.8325 78.3325 67.8325 83.849V111.862L87.2745 92.2098V83.8059H87.3172Z" fill="#00B2CA"/>
<path d="M219.191 0.671875V11.1444C219.191 12.6528 218.807 14.2043 217.954 15.4541C216.76 17.178 215.737 18.2554 214.543 19.4621C211.857 22.1772 209.171 24.6769 206.528 27.392C204.012 29.9347 201.539 32.4343 199.024 34.977C196.679 37.3474 194.334 39.7177 192.031 42.0449C190.624 43.4671 189.217 44.8893 187.811 46.3115C119.465 115.353 104.329 130.609 104.329 130.652L34.0651 201.676H114.178C122.322 201.676 130.252 200.081 137.713 196.892C141.295 195.384 144.748 193.488 147.988 191.247C151.186 189.049 154.213 186.549 156.942 183.791C159.671 181.033 162.144 177.973 164.318 174.74C166.493 171.465 168.368 167.974 169.903 164.354C173.058 156.812 174.636 148.839 174.636 140.565V87.426L194.078 67.7738V140.608C194.078 146.081 193.524 151.554 192.458 156.855C191.392 162.027 189.857 167.155 187.811 172.025C185.807 176.809 183.334 181.42 180.434 185.73C177.578 189.997 174.295 194.005 170.671 197.668C167.047 201.331 163.082 204.65 158.861 207.537C154.597 210.468 150.035 212.967 145.302 214.993C140.485 217.062 135.411 218.656 130.295 219.69C125.05 220.768 119.636 221.328 114.221 221.328H25.7085H0.809082V210.856C0.809082 209.606 1.10753 208.356 1.6618 207.192C2.42925 205.641 3.75096 204.132 4.94477 202.926C12.8751 195.082 7.67347 200.254 9.03783 198.875C11.6386 196.246 9.03783 199.004 16.8402 191.247C19.3131 188.79 21.7007 186.333 24.131 183.877C26.3907 181.593 28.6504 179.309 30.9527 176.981C33.0419 174.87 35.1737 172.715 37.2628 170.603C39.2241 168.621 41.1854 166.638 43.104 164.699C44.8947 162.889 46.728 161.036 48.5187 159.225C50.1815 157.545 51.8443 155.864 53.5072 154.183C55.042 152.632 56.5769 151.08 58.0692 149.572C59.4762 148.15 60.8405 146.77 62.2475 145.348C63.5266 144.055 64.7631 142.806 66.0421 141.513C67.1933 140.349 68.3445 139.185 69.4957 138.022C70.5189 136.987 71.5848 135.91 72.6081 134.876C73.5461 133.928 74.4841 132.979 75.3794 132.074C76.1895 131.256 77.0422 130.394 77.8523 129.575C78.5771 128.842 79.3019 128.11 80.0267 127.377C80.6663 126.73 81.3058 126.084 81.9454 125.437C82.4996 124.877 83.0539 124.317 83.6082 123.757C84.0771 123.283 84.5462 122.809 85.0578 122.291C85.4841 121.86 85.8679 121.473 86.2942 121.042C86.6353 120.697 86.9764 120.352 87.3175 120.007C87.6159 119.706 87.8717 119.447 88.1702 119.145C88.3834 118.93 88.6392 118.671 88.8524 118.456C89.0229 118.283 89.1935 118.111 89.364 117.939C89.4919 117.809 89.6198 117.68 89.7477 117.551C89.833 117.465 89.9609 117.335 90.0462 117.249C90.0888 117.206 90.1741 117.12 90.2167 117.077L91.8369 115.439L185.935 20.3241H105.822C97.678 20.3241 89.7477 21.9187 82.2864 25.1078C78.705 26.6162 75.2515 28.5125 72.0112 30.7535C68.8135 32.9515 65.7863 35.4511 63.0576 38.2093C60.3289 40.9675 57.856 44.0274 55.6816 47.2597C53.5072 50.535 51.6312 54.0259 50.0963 57.646C46.9412 65.188 45.3637 73.1609 45.3637 81.4355V134.617L25.9217 154.269V81.4355C25.9217 75.9622 26.4759 70.4889 27.5418 65.188C28.6077 60.0163 30.1426 54.8878 32.1892 50.0179C34.1931 45.2341 36.6659 40.6227 39.5652 36.313C42.4218 32.0464 45.7048 28.0384 49.3288 24.3752C52.9529 20.7119 56.918 17.3935 61.139 14.506C65.4026 11.5754 69.9646 9.07578 74.6972 7.05022C79.5151 4.98157 84.5888 3.38698 89.7051 2.35266C94.9493 1.27523 100.364 0.714972 105.779 0.714972H194.249H219.191V0.671875Z" fill="#00B2CA"/>
<path d="M132.682 138.194C132.682 141.082 132.127 143.883 131.019 146.469C129.953 149.011 128.418 151.296 126.5 153.235C124.581 155.174 122.321 156.726 119.806 157.803C117.205 158.924 114.476 159.484 111.62 159.484H103.263L83.8209 179.136H111.62C117.077 179.136 122.406 178.059 127.395 175.904C132.213 173.835 136.562 170.905 140.271 167.112C143.98 163.363 146.922 158.967 148.969 154.097C151.1 149.055 152.166 143.667 152.166 138.151V110.138L132.724 129.79V138.194H132.682Z" fill="#00B2CA"/>
</svg>
